<svg width="16" height="16" viewBox="0 0 16 16" fill="none" xmlns="http://www.w3.org/2000/svg">
<path d="M14.1667 6.09998C12.6267 3.67998 10.3733 2.28665 8 2.28665C6.81333 2.28665 5.66 2.63332 4.60667 3.27998C3.55333 3.93332 2.60667 4.88665 1.83333 6.09998C1.16667 7.14665 1.16667 8.84665 1.83333 9.89332C3.37333 12.32 5.62667 13.7067 8 13.7067C9.18667 13.7067 10.34 13.36 11.3933 12.7133C12.4467 12.06 13.3933 11.1067 14.1667 9.89332C14.8333 8.85332 14.8333 7.14665 14.1667 6.09998ZM8 10.6933C6.50667 10.6933 5.30667 9.48665 5.30667 7.99998C5.30667 6.51332 6.50667 5.30665 8 5.30665C9.49333 5.30665 10.6933 6.51332 10.6933 7.99998C10.6933 9.48665 9.49333 10.6933 8 10.6933Z" fill="#9A9292"/>
<path d="M8 6.09332C6.95333 6.09332 6.1 6.94666 6.1 7.99999C6.1 9.04666 6.95333 9.89999 8 9.89999C9.04667 9.89999 9.90667 9.04666 9.90667 7.99999C9.90667 6.95332 9.04667 6.09332 8 6.09332Z" fill="#9A9292"/>
</svg>
